# xmcd
#
# Track frame offsets:
#	150
#	13028
#	25081
#	36301
#	46524
#	56222
#	68252
#	77147
#	88135
#	100840
#	115293
#	127556
#
# Disc length: 1877 seconds
#
# Revision: 1
# Processed by: cddbd v1.5.2PL0 Copyright (c) Steve Scherf et al.
# Submitted via: audiograbber 1.83.01
#
DISCID=8a07530c
DTITLE=Little Jimmy Dickens - Handle With Care
DYEAR=1965
DGENRE=Country
TTITLE0=Another Bridge To Burn
TTITLE1=Is Goodbye That Easy To Say
TTITLE2=Watching The Fire Go Down
TTITLE3=I'll Sit This One Out
TTITLE4=Sorrow's Tearing Down The House ( That Happinesss Once Built)
TTITLE5=I Leaned Over Backwards For You
TTITLE6=He Stands Real Tall
TTITLE7=Stepping Stone
TTITLE8=She's Not Forgotten Yet
TTITLE9=Things Have Goen To Pieces
TTITLE10=Life Turned Her That Way
TTITLE11=Handle With Care
EXTD=
EXTT0=
EXTT1=
EXTT2=
EXTT3=
EXTT4=
EXTT5=
EXTT6=
EXTT7=
EXTT8=
EXTT9=
EXTT10=
EXTT11=
PLAYORDER=
